<?xml version="1.0" encoding="UTF-8" standalone="no"?>
<!-- Created with Inkscape (http://www.inkscape.org/) -->

<svg
   version="1.1"
   id="svg9"
   width="512"
   height="512"
   viewBox="0 0 512.00003 512"
   sodipodi:docname="Souffleur.svg"
   inkscape:version="1.2.1 (9c6d41e4, 2022-07-14)"
   xmlns:inkscape="http://www.inkscape.org/namespaces/inkscape"
   xmlns:sodipodi="http://sodipodi.sourceforge.net/DTD/sodipodi-0.dtd"
   xmlns="http://www.w3.org/2000/svg"
   xmlns:svg="http://www.w3.org/2000/svg">
  <defs
     id="defs13" />
  <sodipodi:namedview
     id="namedview11"
     pagecolor="#ffffff"
     bordercolor="#000000"
     borderopacity="0.25"
     inkscape:showpageshadow="false"
     inkscape:pageopacity="0.0"
     inkscape:pagecheckerboard="true"
     inkscape:deskcolor="#d1d1d1"
     showgrid="false"
     inkscape:zoom="0.41053452"
     inkscape:cx="856.20085"
     inkscape:cy="640.62823"
     inkscape:window-width="1387"
     inkscape:window-height="784"
     inkscape:window-x="0"
     inkscape:window-y="25"
     inkscape:window-maximized="0"
     inkscape:current-layer="g15"
     showborder="false"
     borderlayer="false" />
  <g
     inkscape:groupmode="layer"
     inkscape:label="Image"
     id="g15"
     transform="translate(20.853864,-41.695325)">
    <g
       id="g190"
       transform="matrix(0.35294395,0,0,0.35575262,4.42902,43.912826)">
      <path
         style="fill:#dcdcdc;stroke-width:1.33333"
         d="m 896.04394,1383.1275 c -17.6,-4.3009 -215.89999,-51.979 -440.66667,-105.9512 l -408.666651,-98.1313 -14,-6.8967 c -18.93879,-9.3296 -32.13208956,-18.5313 -38.4296496,-26.8029 -6.1278304,-8.0487 -7.5876004,-12.2243 -9.6118104,-27.4941 -0.82223,-6.2026 -2.08089,-12.3722 -2.79701,-13.7103 -3.67058,-6.8585 -3.62351,-38.2246 0.0826,-55.0123 6.01958,-27.2674 7.4567,-32.8351 10.1525704,-39.3333 1.67329,-4.0334 4.89963,-13.9334 7.16966004,-22 7.74631996,-27.52702 9.86707996,-32.70706 21.70459956,-53.0143 6.51444,-11.17549 16.34034,-29.01907 21.83533,-39.65241 5.495,-10.63333 11.36815,-21.73333 13.05145,-24.66666 4.01517,-6.99688 7.93055,-13.9641 18.73242,-33.33334 7.53336,-13.50836 19.83995,-34.55633 28.595861,-48.90756 1.19938,-1.96584 7.96619,-13.06583 15.03735,-24.66666 7.07114,-11.60084 15.33217,-24.99244 18.35784,-29.75911 3.02565,-4.76666 6.24016,-10.16946 7.14334,-12.00624 0.90319,-1.83676 3.81199,-6.63676 6.464,-10.66666 6.96038,-10.57672 21.54114,-33.64162 35.81861,-56.66043 6.82278,-11 15.32631,-24.33912 18.89675,-29.64249 6.67307,-9.91188 15.16219,-23.84151 58.72309,-96.35751 13.87635,-23.09999 26.64996,-43.49999 28.38582,-45.33333 2.98688,-3.1546 28.02965,-45.52418 44.9202,-76 4.26756,-7.7 8.65753,-15.5 9.75548,-17.33333 2.69956,-4.50765 35.61478,-70.97149 39.28865,-79.33333 1.61099,-3.66667 3.68687,-8.16667 4.61305,-10 0.9262,-1.83333 2.76179,-6.8664 4.07907,-11.1846 1.31729,-4.3182 3.80588,-10.3182 5.53019,-13.33333 1.72432,-3.01514 3.14821,-6.38207 3.1642,-7.48207 0.016,-1.1 1.50561,-5.17155 3.31024,-9.04789 l 3.28116,-7.04788 -3.02759,-1.15108 c -1.66517,-0.63311 -14.69755,-3.0738 -28.96084,-5.42379 -22.80011,-3.75649 -117.16269,-19.61737 -135.26659,-22.7362 -5.92728,-1.02112 -7.67848,-2.2032 -15.78966,-10.65812 -19.90027,-20.7436 -28.16448,-53.14491 -19.36784,-75.93504 1.83985,-4.76666 4.41128,-11.96666 5.71428,-16 1.303,-4.03333 4.0275,-10.03333 6.05445,-13.33333 2.02696,-3.3 5.57183,-9.300001 7.87748,-13.333331 2.30565,-4.03334 6.13891,-9.50761 8.51836,-12.165046 7.05455,-7.878736 32.48985,-24.256211 49.6596,-31.97519 l 16,-7.193099 21.33333,-0.38336 21.33332,-0.383359 204.00001,32.647348 c 169.18025,27.074937 475.89231,76.094277 664.66661,106.228317 23.1,3.68745 44.7171,7.57555 48.0381,8.64021 3.321,1.06466 9.021,4.0311 12.6667,6.5921 3.6457,2.56098 9.6285,6.6737 13.2952,9.13938 18.9064,12.71374 37.5297,38.88112 46.6301,65.51936 2.0043,5.86667 4.2483,11.40763 4.9869,12.31324 1.657,2.03172 0.5764,45.45609 -1.5349,61.68676 -1.0613,8.15819 -2.9393,14.50848 -6.7033,22.66667 -2.876,6.23333 -6.8156,17.03333 -8.7546,23.99999 -1.939,6.96667 -5.5013,15.96667 -7.9162,20 -4.4705,7.46632 -5.5491,9.92656 -19.3476,44.1331 -6.9934,17.33669 -11.8953,26.01621 -44.8053,79.33333 -20.3241,32.9268 -43.3842,70.3669 -51.2447,83.20024 -32.6837,53.36035 -47.389,75.41858 -125.3318,187.99999 -80.22997,115.88505 -91.82117,133.61362 -159.96626,244.66664 -11.64169,18.972 -11.52164,18.7095 -12.59093,27.5316 -0.59171,4.8819 -1.82319,8.3554 -3.50047,9.8733 -3.10809,2.8128 -3.33155,6.3179 -0.54995,8.6264 1.12072,0.9301 39.97072,9.3106 86.33334,18.6233 58.14487,11.6793 86.36377,17.9121 90.96227,20.0909 4.2641,2.0203 11.4941,7.9813 20.0614,16.54 11.3172,11.3059 14.5742,15.5832 21,27.5792 4.1829,7.809 7.6053,15.7464 7.6053,17.6387 0,1.8924 1.3106,7.4329 2.9124,12.3123 2.7111,8.2586 2.7975,9.6195 1.2505,19.6946 -0.914,5.9527 -2.2183,14.954 -2.8984,20.003 -0.6801,5.0489 -1.7646,9.8489 -2.4101,10.6666 -0.6454,0.8178 -1.922,3.8868 -2.8367,6.8201 -1.449,4.6465 -5.8637,13.1924 -18.4694,35.7524 -15.7766,28.2347 -51.2772,60.9952 -83.8967,77.421 -18.95577,9.5453 -20.44587,9.8293 -55.65156,10.6061 l -32,0.706 z"
         id="path191" />
      <path
         id="path189"
         style="fill:#c7c7c7;stroke-width:1.33333"
         d="m 301.32276,41.695325 -17.33399,7.912109 c -17.65826,8.060603 -41.03985,23.155248 -48.6582,31.41211 -5.79608,6.281883 -18.58132,29.323636 -22.19141,39.994136 -1.69234,5.00214 -3.69374,10.24636 -4.44726,11.6543 -0.7535,1.40794 -2.27666,6.87722 -3.38672,12.1543 -1.81395,8.62296 -1.807,10.6229 0.0703,19.7539 4.21151,20.48431 9.5596,31.53873 21.25782,43.93946 6.94372,7.36071 9.68007,9.35523 13.68359,9.96679 2.75258,0.42048 8.60586,1.42912 13.00586,2.24219 4.39999,0.81308 11.29869,2.01032 15.33203,2.66016 4.03333,0.64984 23.534,3.95139 43.33398,7.33594 19.79998,3.38454 39.89936,6.69676 44.66602,7.36132 16.56093,2.30891 46.94816,7.54311 51,8.78516 3.04972,0.93487 2.951,4.09764 -0.33203,10.53711 -1.46667,2.87679 -2.66797,6.02286 -2.66797,6.99219 0,0.96932 -1.4635,4.65235 -3.25391,8.18554 -1.7904,3.5332 -4.79919,10.84302 -6.68554,16.24219 -1.88637,5.3992 -4.02092,10.40765 -4.74414,11.13086 -0.72322,0.72323 -1.31641,2.6134 -1.31641,4.20117 0,1.58778 -1.19936,4.41279 -2.66602,6.27735 -1.46666,1.86455 -2.66601,4.00894 -2.66601,4.76562 0,0.75668 -7.20001,15.79944 -16,33.42774 -8.79999,17.62829 -16,32.40432 -16,32.83593 0,0.43161 -1.50066,2.75264 -3.33399,5.15625 -1.83333,2.40363 -3.33398,4.79515 -3.33398,5.31641 0,0.52126 -7.29669,13.66614 -16.21484,29.20898 -8.91816,15.54284 -17.46817,30.47038 -19,33.17383 -11.97683,21.13722 -14.99877,26.02977 -17.54297,28.39258 -1.59452,1.48083 -11.89868,17.69208 -22.89844,36.02539 -30.15881,50.26567 -60.62943,100.25727 -67.17383,110.20899 -3.20984,4.881 -8.02197,12.38036 -10.69336,16.66601 -15.58763,25.0069 -31.68335,50.49878 -37.77539,59.82617 -3.84383,5.88523 -7.98182,12.48458 -9.19531,14.66602 -1.21348,2.18144 -4.67497,7.86615 -7.69141,12.63281 -3.01643,4.76666 -6.45766,10.28919 -7.64843,12.27149 -8.06529,13.42638 -23.89314,39.28823 -25.83399,42.21093 -1.28486,1.93487 -3.262542,5.31758 -4.394531,7.51758 -1.131968,2.2 -4.988412,8.80134 -8.568359,14.66797 -9.244961,15.15018 -14.712607,24.74591 -22.792969,40 -3.884576,7.33339 -8.706235,16.03203 -10.714843,19.33203 -2.008598,3.2999 -7.98051,14.40128 -13.271485,24.66797 -5.290984,10.26669 -13.964443,26.16544 -19.273437,35.33203 -13.523227,23.34958 -16.183339,28.97102 -19.3535159,40.87891 -4.92129502,18.48558 -9.5561214,32.98885 -12.2304687,38.27345 -1.4337686,2.8332 -3.1385134,7.9318 -3.7890624,11.332 -2.364898,12.3603 -4.233211,21.0636 -6.761719,31.5156 -4.056666,16.7691 -3.42826,43.4664 1.228516,52.1954 0.725139,1.3593 2.000635,8.092 2.833984,14.9609 2.799577,23.0755 10.6154789,31.827 43.478516,48.6836 13.136797,6.7383 17.945202,8.3274 44.666015,14.7715 59.127769,14.2595 136.442819,32.8529 201.945309,48.5644 119.41309,28.6424 269.27684,64.6729 408.66602,98.2539 75.16662,18.1088 142.36729,34.2613 149.33398,35.8926 22.01898,5.1559 65.53542,15.5977 78,18.7168 10.70819,2.6795 15.52096,3.0177 44.70704,3.1484 l 32.70703,0.1465 11.11137,-4.6855 c 22.3627,-9.4315 44.0867,-23.4873 60.0918,-38.8789 5.5277,-5.3159 11.178,-10.7387 12.5566,-12.0508 2.2906,-2.1801 13.1262,-16.02 20.4922,-26.1738 1.65,-2.2745 3,-5.1296 3,-6.3438 0,-1.2142 0.9467,-2.993 2.1035,-3.9531 1.1568,-0.9601 5.4183,-8.6843 9.4688,-17.1641 4.0505,-8.4797 8.3073,-17.3829 9.4589,-19.7851 1.1517,-2.4022 2.2019,-7.501 2.336,-11.3321 0.1341,-3.8311 1.3154,-11.9092 2.625,-17.9511 2.1986,-10.1426 2.2204,-11.4204 0.2715,-16.6661 -1.161,-3.1247 -2.7409,-9.2155 -3.5098,-13.5332 -0.7689,-4.3176 -2.9877,-10.6177 -4.9316,-14 -1.944,-3.3822 -4.9838,-9.0696 -6.7559,-12.6386 -1.9215,-3.8701 -8.7067,-11.9638 -16.8106,-20.0547 -10.8439,-10.8268 -15.1738,-14.2084 -21.4414,-16.7422 -4.6355,-1.8739 -42.0141,-10.0478 -91.21481,-19.9453 -80.37722,-16.1693 -83.45435,-16.8984 -86.03125,-20.3809 l -2.67383,-3.6113 3.40039,-5.0547 c 2.0953,-3.1161 3.69377,-7.7765 4.16797,-12.1523 0.6204,-5.724 2.55288,-9.9837 9.98438,-22 5.06869,-8.1959 24.97931,-40.4018 44.24609,-71.56839 28.44687,-46.01691 50.71786,-79.3375 118.50196,-177.29492 77.684,-112.26432 92.1636,-133.92138 119.7324,-179.08399 5.7229,-9.37518 17.3572,-28.2752 25.8535,-42 70.8222,-114.40599 66.3917,-106.68733 78.5391,-136.82617 6.1783,-15.32877 13.2155,-31.16147 15.6387,-35.18555 2.4232,-4.02406 6.2514,-13.68241 8.5078,-21.46289 2.2565,-7.78047 6.2464,-18.64649 8.8652,-24.14648 3.6004,-7.56133 5.0076,-12.60254 5.7696,-20.66797 0.5544,-5.86666 1.6981,-14.56537 2.5429,-19.33203 2.256,-12.72819 0.9516,-39.0919 -2.3086,-46.66797 -1.4202,-3.3 -3.018,-7.7754 -3.5527,-9.94531 -2.9893,-12.13011 -16.583,-34.84144 -28.3477,-47.36328 -10.5918,-11.27339 -31.414,-26.7039 -41.1015,-30.45899 -2.2,-0.85278 -56.8007,-9.97694 -121.334,-20.27539 -64.5332,-10.29847 -136.2321,-21.7441 -159.33205,-25.43555 -23.09998,-3.69143 -58.50139,-9.33666 -78.66797,-12.54492 -20.1667,-3.20824 -61.26536,-9.83846 -91.33203,-14.73242 -30.06657,-4.89396 -58.26797,-9.39749 -62.66797,-10.00781 -4.4,-0.61032 -96.20006,-15.205615 -204,-32.435548 C 347.40944,42.330562 346.56816,42.209117 323.98877,41.953137 Z m 12.44336,33.623047 c 5.4437,-0.402622 14.20363,0.93611 39.55664,5.330078 4.39999,0.762569 21.19872,3.513241 37.33203,6.111328 16.13332,2.598098 36.23465,5.891524 44.66797,7.320313 8.43332,1.428778 23.13269,3.828946 32.66601,5.333984 9.53333,1.505045 23.03335,3.639315 30,4.742185 6.96667,1.10287 16.86668,2.62432 22,3.38086 14.46798,2.13226 33.30478,5.16056 48.66602,7.82227 7.69998,1.33421 18.20059,3.07243 23.33398,3.86328 5.1333,0.79084 16.83331,2.64041 26,4.10937 9.16659,1.46897 22.54673,3.32082 29.73243,4.11719 7.18559,0.79638 18.8856,2.61381 26,4.03711 7.11429,1.4233 19.83418,3.73845 28.26757,5.14453 20.47398,3.41363 57.55483,9.40032 66.66602,10.76367 4.0334,0.60352 20.834,3.32129 37.33398,6.03907 16.49999,2.71777 33.60001,5.41253 38,5.98828 4.4,0.57575 16.7007,2.55095 27.33399,4.39062 10.63329,1.83966 29.23204,4.92034 41.33203,6.84571 12.09999,1.92535 27.40001,4.3676 34,5.42578 19.54598,3.13381 53.73561,8.59017 67.33401,10.74609 6.9667,1.10451 19.866,3.17444 28.666,4.60156 8.8,1.42712 32.8007,5.29874 53.334,8.60157 20.5334,3.30283 45.7334,7.47188 56,9.26562 10.2667,1.79374 22.8667,3.93736 28,4.76367 54.5928,8.78764 79.9224,13.44178 81.7929,15.0293 1.214,1.03028 4.7591,3.09883 7.8789,4.5957 9.7358,4.67094 23.589,19.56016 26.3125,28.28125 0.5549,1.77694 2.1284,4.43039 3.4961,5.89844 1.3678,1.46805 4.6196,6.25058 7.2266,10.62695 l 4.7402,7.95703 -1.6054,16.14258 c -1.006,10.11435 -2.521,17.99038 -4.0567,21.08985 -1.7773,3.58708 -2.4567,7.98514 -2.4707,16 -0.011,6.18659 -0.7581,12.521 -1.6972,14.38672 -2.2025,4.37522 -4.5903,4.42713 -26.2832,0.57812 -9.9,-1.75656 -27.0001,-4.72199 -38,-6.58984 -11,-1.86787 -23.3006,-3.97551 -27.334,-4.68555 -4.0333,-0.71003 -20.2333,-3.37142 -36,-5.91211 -15.7666,-2.54068 -47.2666,-7.66053 -70,-11.37891 -22.7333,-3.71837 -57.8333,-9.44762 -78,-12.73046 -20.1666,-3.28285 -39.96663,-6.5623 -44.00003,-7.28711 -4.03329,-0.72481 -22.33273,-3.74482 -40.66601,-6.71289 -43.70226,-7.0752 -192.59281,-31.60203 -202,-33.2754 -4.0333,-0.71746 -27.43333,-4.58509 -52,-8.5957 -24.56668,-4.0106 -59.3674,-9.69774 -77.33399,-12.63672 -17.96668,-2.93899 -49.46668,-8.08549 -70,-11.4375 -110.941,-18.11085 -127.27859,-20.79393 -134,-22.00781 -4.03333,-0.72841 -13.93334,-2.51301 -22,-3.96484 -8.06666,-1.45185 -36.81686,-6.2882 -63.88867,-10.74805 -27.07182,-4.45985 -50.97477,-9.01515 -53.11719,-10.12305 -6.25033,-3.23216 -10.9604,-16.30018 -12.58203,-34.90625 -1.04036,-11.93673 2.42632,-25.14709 9.97852,-38.03125 5.13891,-8.76706 8.22938,-12.14009 19.23437,-20.992185 16.43729,-13.221657 17.83597,-14.125859 25.32227,-16.378906 1.56956,-0.472367 3.01551,-0.80134 4.83008,-0.935547 z M 459.8462,257.02736 c 1.6102,-1.66214 35.90167,3.71101 164.14257,25.71875 68.95933,11.8343 661.95683,112.6582 662.60153,112.6582 2.3314,0 -0.019,4.94517 -4.9375,10.39062 -7.2967,8.07814 -11.664,14.33985 -11.664,16.72461 0,1.03991 -0.8612,2.60667 -1.9141,3.48047 -1.0528,0.8738 -2.2868,3.28414 -2.7422,5.35742 -0.4554,2.07328 -1.9948,4.82553 -3.4199,6.11524 -1.4251,1.28969 -2.5898,3.60711 -2.5898,5.15039 0,1.54328 -1.2412,3.58014 -2.7579,4.52734 -2.1092,1.31725 -2.5693,2.58198 -1.955,5.37891 0.6203,2.82424 0.034,4.38042 -2.5762,6.83203 -1.8583,1.74584 -3.3789,4.20446 -3.3789,5.46484 0,1.26037 -0.8144,2.60405 -1.8106,2.98633 -0.9962,0.38229 -2.1911,3.07609 -2.6562,5.98438 -0.5594,3.49826 -1.9262,5.99384 -4.0371,7.37695 -1.7549,1.14985 -4.5729,4.9728 -6.2617,8.49414 -1.6888,3.52136 -5.4924,9.97462 -8.4532,14.33985 -5.5878,8.23813 -8.8255,13.69938 -11.5,19.39648 -0.8607,1.83333 -2.0922,4.23203 -2.7363,5.33203 -0.644,1.1 -1.9871,3.8 -2.9844,6 -0.9974,2.2 -2.8059,4.82363 -4.0195,5.83008 -1.2136,1.00647 -2.207,2.40591 -2.207,3.10937 0,0.70345 -2.0994,3.84234 -4.666,6.97461 -2.5667,3.13227 -4.668,6.90986 -4.668,8.39453 0,1.48468 -0.8757,3.42707 -1.9473,4.31641 -1.0716,0.88935 -2.348,2.87487 -2.8359,4.41211 -0.4879,1.53725 -2.7603,4.69795 -5.0508,7.02539 -2.2905,2.32741 -5.8218,6.56552 -7.8457,9.41797 -2.0239,2.85244 -6.6212,9.19907 -10.2168,14.10352 -3.5956,4.90443 -6.9127,10.10045 -7.3711,11.54492 -0.4585,1.44448 -1.7111,2.96165 -2.7832,3.37304 -1.072,0.4114 -1.9492,1.9325 -1.9492,3.37891 0,1.4464 -0.6606,3.03765 -1.4688,3.53711 -0.8081,0.49947 -2.322,2.78431 -3.3632,5.07812 -1.0412,2.2938 -3.9702,6.87188 -6.5098,10.17188 -6.8978,8.96345 -17.0301,23.75294 -19.5176,28.48828 -1.2069,2.29752 -4.573,6.87774 -7.4785,10.17774 -2.9054,3.29999 -5.7078,7.35118 -6.2285,9.00195 -0.5206,1.65079 -2.1065,3.62055 -3.5235,4.3789 -1.417,0.75834 -2.5761,2.76511 -2.5761,4.45899 0,1.69386 -1.1994,4.16682 -2.666,5.49414 -1.4667,1.32732 -2.668,2.99681 -2.668,3.71094 0,0.71412 -2.1061,3.77076 -4.6817,6.79297 -8.9049,10.44895 -9.9843,11.92559 -9.9843,13.66015 0,0.95804 -1.1994,2.38303 -2.666,3.16797 -1.4667,0.78493 -2.668,2.2491 -2.668,3.25391 0,1.00481 -1.9487,4.28026 -4.332,7.27734 -9.0429,11.37161 -10.334,13.28278 -10.334,15.30078 0,1.14154 -1.1994,2.71703 -2.666,3.50196 -1.4667,0.78492 -2.668,2.24909 -2.668,3.2539 0,1.00482 -1.9487,4.28027 -4.332,7.27735 -8.7324,10.98111 -10.334,13.25254 -10.334,14.66796 0,0.79446 -1.1994,2.19344 -2.666,3.10938 -1.4667,0.91595 -2.668,2.64065 -2.668,3.83203 0,1.19137 -1.1993,3.69208 -2.666,5.55664 -1.4666,1.86456 -2.666,3.94011 -2.666,4.61328 0,0.67316 -1.5551,2.67919 -3.4551,4.45703 -3.6759,3.43962 -11.2129,14.00861 -11.2129,15.72461 0,0.5643 -1.4987,2.33169 -3.332,3.92578 -1.8334,1.5941 -3.334,3.74741 -3.334,4.78711 0,1.0397 -1.7137,3.33291 -3.8086,5.09571 -3.6094,3.03709 -6.205,6.93406 -9.5176,14.28515 -0.8059,1.7884 -2.67866,4.09902 -4.16015,5.13672 -1.4814,1.0376 -2.39385,2.66805 -2.02735,3.62305 0.3665,0.955 -0.49296,2.78576 -1.91015,4.06836 -1.4172,1.2826 -2.57618,3.41889 -2.57618,4.74609 0,1.32719 -1.10498,3.00396 -2.45507,3.72656 -1.3501,0.7225 -4.09728,4.79358 -6.10547,9.04688 -5.3302,11.28899 -6.68891,13.49498 -11.19141,18.17578 -2.2351,2.32351 -5.60313,7.30899 -7.48633,11.08008 -1.8832,3.7712 -4.32478,7.20251 -5.42578,7.625 -1.101,0.4225 -2.00195,1.98686 -2.00195,3.47656 0,1.4896 -1.20127,3.9084 -2.66797,5.375 -1.4666,1.4667 -2.66602,3.86729 -2.66602,5.33399 0,1.46659 -0.59095,2.66601 -1.31445,2.66601 -0.7235,0 -2.23964,1.95059 -3.36914,4.33399 -2.9295,6.18159 -5.22508,9.95232 -7.76758,12.76171 -1.2183,1.3462 -2.21484,3.05744 -2.21484,3.80274 0,0.7452 -1.20127,2.44223 -2.66797,3.76953 -1.4666,1.3273 -2.66602,3.42888 -2.66602,4.67187 0,1.2429 -1.95058,4.84461 -4.33398,8.00391 -6.43589,8.53119 -8.83308,12.2629 -10.42188,16.2168 -0.78679,1.9579 -2.28919,3.88851 -3.33789,4.29101 -1.0488,0.4024 -1.90625,1.84172 -1.90625,3.19922 0,1.3574 -1.48804,3.76255 -3.30664,5.34375 -2.54749,2.2153 -3.13534,3.72972 -2.56054,6.60353 0.5458,2.729 0.002,4.404 -2.02735,6.2402 -1.525,1.3801 -2.77148,3.5947 -2.77148,4.9219 0,1.3272 -1.20127,3.0549 -2.66797,3.8398 -1.4666,0.7849 -2.66602,2.5145 -2.66602,3.8418 0,1.3272 -1.19929,3.4988 -2.66601,4.8262 -1.4667,1.3273 -2.66797,3.1379 -2.66797,4.0254 0,0.8874 -1.10809,3.046 -2.46289,4.7949 -1.3549,1.7489 -2.8583,4.8003 -3.3418,6.7813 -0.4835,1.981 -3.87551,6.5499 -7.53711,10.1543 -3.66169,3.6043 -6.6582,7.7404 -6.6582,9.1914 0,1.451 -1.19942,3.7254 -2.66602,5.0527 -1.46669,1.3273 -2.66601,4.0273 -2.66601,6 0,1.9727 -1.20127,4.6727 -2.66797,6 -1.605,1.4525 -2.66602,4.106 -2.66602,6.666 0,2.4791 -1.05118,5.2065 -2.52148,6.5371 -1.5573,1.4093 -2.86286,4.9964 -3.41016,9.377 -0.6298,5.0401 -1.83083,7.9825 -4.14453,10.1562 -1.7917,1.6831 -3.25731,3.7073 -3.25781,4.4961 -6e-4,0.7888 -1.8006,5.2376 -4,9.8867 -2.1995,4.6492 -4,10.4539 -4,12.8985 0,2.6774 -1.23015,5.9426 -3.09375,8.2129 -2.6176,3.189 -3.1177,5.3936 -3.25,14.3222 -0.1404,9.4737 -0.50095,10.8719 -3.53125,13.6817 -2.3527,2.1816 -3.33791,4.4379 -3.25391,7.4472 0.0662,2.3747 -0.97109,10.3171 -2.30468,17.6504 -2.4489,13.4664 -2.60979,15.6827 -1.83789,25.334 0.23459,2.9334 -0.0204,11.1245 -0.56641,18.2031 -0.6686,8.6691 -0.52967,13.1568 0.42383,13.7461 0.7786,0.4812 1.42383,2.4895 1.42383,4.4629 0.005,1.9733 0.9046,5.3058 2,7.4063 1.09549,2.1005 1.99023,6.7162 1.99023,10.2558 0,3.5395 0.60058,6.8065 1.33398,7.2598 0.7333,0.4532 1.35486,2.4387 1.38086,4.4121 0.026,1.9734 0.90513,5.0866 1.95313,6.9199 1.048,1.8333 1.92712,4.8006 1.95312,6.5938 0.026,1.7932 1.62414,4.9089 3.55274,6.9219 2.0971,2.1889 3.18628,4.4945 2.70898,5.7382 -0.7767,2.0241 -4.12523,2.4235 -9.54883,1.1387 -1.46669,-0.3474 -16.16603,-3.8712 -32.66601,-7.8301 -46.86505,-11.2443 -68.98317,-16.5304 -164.66797,-39.3632 -49.13325,-11.7244 -99.23204,-23.6884 -111.33203,-26.586 -12.09999,-2.8977 -32.20131,-7.6986 -44.66797,-10.6679 -12.46666,-2.9693 -33.76538,-8.0635 -47.33203,-11.3204 -13.56666,-3.2568 -37.26799,-8.9258 -52.66797,-12.5996 -42.99672,-10.2572 -59.37506,-14.1667 -84,-20.0468 -12.46666,-2.9768 -32.86537,-7.8427 -45.33203,-10.8125 -12.46665,-2.9699 -26.86667,-6.5187 -32,-7.8868 -5.13333,-1.368 -28.53337,-7.043 -52,-12.6113 -23.46665,-5.5683 -51.06732,-12.1272 -61.333986,-14.5762 -10.26665,-2.4489 -24.604609,-5.861 -31.863281,-7.582 -12.178558,-2.8876 -13.331182,-3.4397 -14.90625,-7.1523 -0.938769,-2.2128 -4.775148,-7.0229 -8.527344,-10.6895 -4.766865,-4.6582 -7.248496,-8.3498 -8.234375,-12.2519 -0.776029,-3.0715 -2.548475,-6.6142 -3.939453,-7.8731 -2.019558,-1.8276 -2.509341,-4.0601 -2.431641,-11.082 0.05353,-4.8363 0.654438,-12.0936 1.335938,-16.127 0.681499,-4.0333 1.788225,-11.834 2.458984,-17.334 2.133608,-17.4946 4.352265,-28.1195 7.607422,-36.4257 1.741428,-4.4436 3.166015,-9.0323 3.166015,-10.1973 0,-1.1649 2.003525,-6.30147 4.451172,-11.41407 2.447658,-5.11259 6.131812,-14.39561 8.1875,-20.6289 4.491676,-13.61989 10.038843,-24.81702 19.814453,-40 12.107218,-18.80449 12.88086,-20.12083 12.88086,-21.88672 0,-0.9355 1.199347,-2.78599 2.666015,-4.11328 1.466669,-1.3274 2.667969,-3.44774 2.667969,-4.71094 0,-1.26321 0.875667,-3.02271 1.947266,-3.91211 1.071599,-0.8893 2.329199,-2.81419 2.792969,-4.27539 0.463769,-1.46121 26.969307,-45.35578 58.902347,-97.54492 61.76046,-100.93709 116.08529,-189.81587 128.08593,-209.55664 17.39853,-28.62013 36.84132,-60.3578 39.61524,-64.66602 13.40484,-20.8193 41.26478,-67.94276 41.76367,-70.64063 0.34171,-1.8479 1.74646,-4.80764 3.12109,-6.57812 1.37464,-1.77048 7.50171,-13.5346 13.61524,-26.14063 6.11354,-12.60601 11.79862,-23.3426 12.63476,-23.85937 0.83615,-0.51677 1.52149,-1.98666 1.52149,-3.26758 0,-1.28091 1.4987,-4.36271 3.33203,-6.84765 1.83334,-2.48494 3.33398,-5.81773 3.33398,-7.40625 0,-1.58852 1.50066,-5.09924 3.33399,-7.80079 1.83333,-2.70156 3.33203,-5.54017 3.33203,-6.30859 0,-0.76844 1.2013,-2.92256 2.66797,-4.78711 1.46667,-1.86456 2.66601,-4.56457 2.66601,-6 0,-1.43544 1.19936,-4.13545 2.66602,-6 1.46667,-1.86456 2.66797,-4.71712 2.66797,-6.33789 0,-1.62079 1.19935,-4.03206 2.66601,-5.35937 1.46666,-1.32732 2.66602,-3.49513 2.66602,-4.81836 0,-2.73481 32.6519,-71.60326 35.19141,-74.22461 z m 4.11523,182.3457 c -8.65708,0.71005 -17.02744,5.2581 -22.57422,13.43359 -6.82334,10.05704 -6.1794,25.50214 1.43945,34.55664 3.99078,4.74277 11.33233,9.41324 16.97266,10.79688 12.18977,2.99028 26.73322,-4.22765 32.97852,-16.36914 4.83428,-9.39836 2.6683,-25.13136 -4.51953,-32.83008 -6.69548,-7.17139 -15.6398,-10.29794 -24.29688,-9.58789 z m 198.44336,34.17187 c -2.62634,0.0742 -4.44867,0.30302 -6.12109,0.64844 -10.83409,2.23765 -18.64558,7.58995 -23.54688,16.13672 -8.68279,15.14081 -3.47363,32.39838 12.62695,41.83399 6.5827,3.85771 6.46736,3.84427 77.95899,9.90234 80.89072,6.85452 91.04916,8.44725 111.65234,17.51562 3.1087,1.36826 6.53639,2.48829 7.61719,2.48829 1.0809,0 4.83716,1.12803 8.34766,2.50585 3.51049,1.37782 9.68154,2.90382 13.71484,3.39258 4.0334,0.48876 10.03399,1.99074 13.33398,3.33594 13.33461,5.43567 20.92951,7.99959 26,8.77734 2.9333,0.44993 8.03399,1.92638 11.33399,3.28321 10.51929,4.32511 24.43761,8.41475 32,9.40039 11.62729,1.51546 13.81824,1.43191 20.27344,-0.76758 13.17858,-4.49041 22.39257,-16.72257 22.39257,-29.72656 0,-16.97301 -14.32023,-30.54743 -34.66601,-32.85938 -4.0333,-0.45832 -11.23331,-2.22304 -16,-3.92187 -4.7667,-1.69883 -13.16798,-4.43697 -18.66797,-6.08594 -5.49999,-1.64898 -13.89942,-4.34956 -18.66602,-6 -8.73929,-3.02594 -18.89339,-5.7711 -34.48437,-9.32422 -4.6663,-1.06342 -9.1663,-2.49124 -10,-3.17383 -0.8337,-0.68257 -4.21563,-1.92917 -7.51563,-2.76953 -3.29999,-0.84034 -8.81019,-2.69951 -12.24609,-4.13086 -3.436,-1.43134 -7.69309,-2.60156 -9.45898,-2.60156 -1.766,0 -6.69483,-1.19899 -10.95313,-2.66406 -9.63699,-3.31563 -16.16549,-4.07822 -92.00781,-10.7461 -39.93289,-3.5108 -55.03895,-4.67171 -62.91797,-4.44922 z M 343.55713,637.12306 c -3.11334,0.47523 -6.2697,1.49872 -9.38476,3.15234 -10.04878,5.33439 -15.17828,12.80135 -15.92969,23.18946 -0.39924,5.5195 0.11958,9.86645 1.66016,13.90039 2.42129,6.34009 10.49357,14.51374 17.22656,17.44336 12.32196,5.36149 30.06779,-2.06893 36.78906,-15.4043 11.13083,-22.08418 -8.56789,-45.6079 -30.36133,-42.28125 z m 187.3086,40.31055 c -2.43288,0.0597 -3.86596,0.2777 -4.84961,0.61914 -22.18775,7.70147 -29.5704,32.38973 -14.55664,48.67773 9.9429,10.78677 10.8939,10.9793 85.86328,17.36133 30.79997,2.62197 58.99932,5.6138 62.66601,6.64844 3.6666,1.03466 8.76729,3.46017 11.33399,5.38867 28.09297,21.10794 48.86948,28.3665 99.33203,34.70508 25.06307,3.14815 40.2289,5.83483 47.58789,8.42968 16.65558,5.87286 24.89242,8.24363 32.41211,9.32813 4.4,0.6346 9.8,1.19419 12,1.24219 9.54759,0.2103 23.03976,-8.9586 27.04687,-18.38086 2.9615,-6.96377 2.60264,-18.29091 -0.78906,-24.90625 -4.43871,-8.6577 -11.92355,-14.11161 -25.93164,-18.89453 -6.84339,-2.33661 -13.30597,-4.24805 -14.35937,-4.24805 -1.0534,0 -4.92653,-1.14262 -8.60743,-2.53906 -15.63178,-5.93047 -32.46981,-9.38313 -56.02539,-11.48633 -13.19998,-1.17858 -27.30058,-3.03538 -31.33398,-4.12695 -4.0333,-1.0916 -10.85637,-2.88437 -15.16406,-3.98243 -8.01579,-2.04327 -15.92598,-6.51197 -28.85157,-16.30273 -4.02379,-3.04793 -11.6031,-7.6331 -16.84179,-10.18945 -11.22589,-5.47808 -8.17177,-5.07749 -97.11328,-12.80078 -40.21496,-3.49211 -56.51973,-4.72222 -63.81836,-4.54297 z M 228.32276,807.584 c -3.19985,0.27207 -6.46851,1.12259 -9.71875,2.65039 -11.93776,5.61139 -19.71181,20.01558 -17.41406,32.26367 1.50388,8.01639 8.60504,17.0245 16.79882,21.30859 6.05033,3.1634 8.54705,3.73665 14.27344,3.27735 8.85038,-0.7098 18.33356,-6.42517 23.55078,-14.19336 13.95535,-20.77904 -5.09131,-47.21118 -27.49023,-45.30664 z m 233.66601,39.20703 c -21.8678,-1.7602 -40.68426,6.18274 -48.45117,20.45312 -7.70695,14.16009 -2.72146,31.15455 11.54883,39.36524 7.53759,4.33699 14.03255,5.15473 28.23633,3.55273 18.10562,-2.04201 24.94956,0.17433 56,18.13281 48.75165,28.19624 41.28834,26.07991 114.66601,32.50977 45.97956,4.029 61.71429,5.86714 67.33399,7.86523 4.03329,1.4341 11.53262,3.23571 16.66601,4.00391 5.1333,0.7683 12.03399,2.25574 15.33399,3.30664 29.75397,9.47519 56.18358,-19.26695 41,-44.58789 -5.9687,-9.95369 -13.68049,-14.55297 -27.26367,-16.25976 -5.7224,-0.7191 -15.20372,-2.70803 -21.07032,-4.41993 -16.71628,-4.87769 -32.59473,-7.08716 -81.33398,-11.31836 -46.12385,-4.00419 -61.21182,-6.42691 -67.53906,-10.84961 -1.94653,-1.36059 -3.89794,-2.4746 -4.33789,-2.4746 -0.43996,-10e-6 -11.40937,-6.09845 -24.375,-13.55274 -36.58002,-21.03078 -42.39132,-22.98816 -76.41407,-25.72656 z M 123.1587,969.36329 c -2.25207,0.19325 -4.4915,0.6999 -6.66797,1.55664 -8.29978,3.2671 -11.27895,5.64569 -15.87696,12.67188 -5.60162,8.55969 -6.526207,17.30499 -2.734371,25.87699 3.542841,8.0092 5.799361,10.6191 13.371091,15.4707 18.13345,11.6193 44.07227,-3.6028 44.07227,-25.86332 0,-17.04349 -16.39961,-31.06559 -32.16406,-29.71289 z m 204.08984,51.08591 c -18.26594,-0.6484 -33.46653,17.2215 -30.06641,35.3457 1.29632,6.91 8.38456,16.5822 14.98633,20.4512 5.33295,3.1253 8.63122,3.6951 34.85547,6.0156 21.31441,1.8861 30.61874,3.2576 35.22852,5.1934 3.44543,1.4468 12.32281,3.2519 19.72656,4.0117 7.40375,0.7598 15.08422,2.0354 17.06836,2.834 1.98413,0.7987 7.80807,2.5275 12.9414,3.8437 13.10337,3.3598 24.48599,7.7087 40.6875,15.543 19.86209,9.6044 26.07988,12.1716 31.70313,13.0918 6.51115,1.0655 18.16978,5.0639 32.94336,11.2969 6.59999,2.7845 16.5,6.6854 22,8.6699 5.49999,1.9844 12.69997,4.6613 16,5.9492 8.74029,3.411 23.39364,7.7767 33.33203,9.9297 4.76669,1.0326 11.36797,2.778 14.66797,3.8789 3.29999,1.101 9.6,2.5676 14,3.2578 19.98098,3.1345 28.33953,0.9652 37.82812,-9.8144 9.08149,-10.3172 9.89269,-23.6725 2.15039,-35.4492 -4.15589,-6.3217 -13.38436,-12.6436 -20.06445,-13.7461 -2.8868,-0.4764 -8.54863,-1.9703 -12.58203,-3.3203 -4.0333,-1.35 -10.93204,-3.3324 -15.33203,-4.4043 -21.71988,-5.2915 -27.0864,-6.8168 -32.08789,-9.1231 -2.9816,-1.3749 -6.2992,-2.5 -7.3711,-2.5 -1.072,0 -3.14939,-0.841 -4.61718,-1.8691 -1.4679,-1.0281 -5.35021,-2.592 -8.62891,-3.4746 -3.2786,-0.8827 -10.3894,-3.7059 -15.80078,-6.2735 -5.41139,-2.5677 -11.41205,-5.1713 -13.33399,-5.7851 -1.92194,-0.6137 -5.89479,-2.0219 -8.82812,-3.1309 -2.93333,-1.1091 -7.31128,-2.0442 -9.72852,-2.0762 -4.17848,-0.056 -7.91479,-1.6058 -35.30468,-14.6465 -12.15913,-5.789 -21.23005,-9.2441 -35.1543,-13.3906 -4.50332,-1.341 -9.47006,-3.1242 -11.03711,-3.9629 -1.56706,-0.8386 -9.88222,-2.3668 -18.47852,-3.3965 -8.59627,-1.0296 -18.92956,-3.0425 -22.96289,-4.4726 -6.7569,-2.3959 -55.61664,-7.6558 -78.74023,-8.4766 z m 550.07422,110.1719 c 10.00859,-0.7392 22.19481,0.7681 34,4.207 4.03329,1.175 14.23262,2.9496 22.66601,3.9434 8.4333,0.9937 18.93399,2.6862 23.33399,3.7617 18.63968,4.5564 26.93324,6.2031 31.24414,6.2031 2.5187,0 7.02035,1.0994 10.00195,2.4434 8.42125,3.7962 14.54475,5.5566 19.33395,5.5566 5.1182,0 29.5967,11.4116 35.9551,16.7618 7.9924,6.7251 17.4649,24.1551 17.4649,32.1386 0,1.7776 0.9114,4.9946 2.0253,7.1485 1.8113,3.5029 1.8113,4.4284 0,8.7636 -1.1139,2.6659 -2.0253,6.2873 -2.0253,8.0469 0,1.7596 -2.1013,8.5722 -4.668,15.1406 -2.5667,6.5684 -4.666,12.5468 -4.666,13.2852 0,2.5248 -8.5587,18.0419 -12.6153,22.8711 -10.3153,12.2799 -13.5227,16.4608 -16.0976,20.9941 -3.6603,6.444 -8.3316,10.9914 -18.3516,17.8594 -4.548,3.1173 -10.4923,7.3663 -13.2109,9.4434 -2.77027,2.1166 -10.47421,5.4377 -17.52541,7.5547 -6.91959,2.0775 -14.31505,4.673 -16.43554,5.7695 -5.5426,2.8662 -11.68749,3.4359 -23.32618,2.1582 -20.34568,-2.2335 -41.58829,-8.8522 -54.61328,-17.0156 -4.67021,-2.9271 -10.63732,-6.4313 -13.26172,-7.7871 -8.05929,-4.1637 -21.24934,-13.4594 -23.71484,-16.7129 -8.56149,-11.2981 -10.84367,-18.6827 -12.20117,-39.4825 -0.6079,-9.315 -1.83457,-21.7368 -2.72656,-27.6035 -1.8486,-12.1585 -0.63196,-20.9478 4.55664,-32.9101 1.69119,-3.8993 3.81927,-11.5899 4.73047,-17.0899 0.91119,-5.5 3.11358,-13.1631 4.89257,-17.0293 2.3559,-5.1202 3.23438,-9.3508 3.23438,-15.5742 0,-8.3488 0.14354,-8.6987 6.33203,-15.3496 6.24039,-6.7066 6.47168,-6.8168 15.66797,-7.4961 z" />
      <path
         style="fill:#7e7e7e;stroke-width:1.33333"
         d="m 634.36149,1164.5498 c -3.87127,-0.6446 -8.37127,-2.0173 -10,-3.0505 -1.62874,-1.0332 -6.26134,-2.3083 -10.29467,-2.8336 -4.03333,-0.5253 -10.03332,-2.0092 -13.33332,-3.2974 -3.3,-1.2883 -8.7,-2.779 -12,-3.3128 -3.3,-0.5338 -7.87083,-2.107 -10.15737,-3.4962 -2.28656,-1.3891 -5.28656,-2.5279 -6.66667,-2.5306 -1.38012,0 -4.4738,-1.2028 -6.87485,-2.6667 -2.40106,-1.4639 -5.42419,-2.6617 -6.71808,-2.6617 -1.29388,0 -4.70624,-1.2 -7.58303,-2.6667 -2.87679,-1.4666 -5.85364,-2.6721 -6.61525,-2.6788 -0.76162,-0.01 -4.38475,-1.488 -8.05142,-3.2917 -3.66666,-1.8036 -7.58316,-3.2982 -8.70332,-3.3211 -1.12017,-0.023 -3.25376,-0.8942 -4.74133,-1.9361 -1.48756,-1.0419 -6.39296,-2.5632 -10.90088,-3.3807 -4.50792,-0.8174 -11.07432,-2.6875 -14.59201,-4.1557 -7.48008,-3.1219 -17.54246,-7.7947 -20.39579,-9.4714 -1.1,-0.6464 -3.13313,-1.5495 -4.51808,-2.007 -1.38495,-0.4575 -5.16669,-2.24 -8.40389,-3.9613 -3.23719,-1.7212 -6.91294,-3.1295 -8.16832,-3.1295 -1.2554,0 -4.37364,-1.1121 -6.92945,-2.4713 -2.5558,-1.3592 -7.02619,-2.9106 -9.93418,-3.4476 -2.908,-0.537 -7.01896,-1.8719 -9.13546,-2.9664 -2.11651,-1.0945 -11.13724,-2.8035 -20.04608,-3.7979 -9.53863,-1.0647 -18.66458,-2.8906 -22.19787,-4.4414 -4.51393,-1.9811 -12.76987,-3.191 -33.33333,-4.8849 -15.03334,-1.2384 -29.46519,-2.7842 -32.07079,-3.4351 -10.23441,-2.5566 -19.92921,-15.2876 -19.92921,-26.1706 0,-4.3475 5.90695,-15.5937 9.79817,-18.6545 7.86653,-6.1878 11.68588,-6.4346 49.27357,-3.183 26.62746,2.3034 36.33243,3.6349 40.83675,5.6024 3.27535,1.4308 11.89131,3.1905 19.33333,3.9488 7.38367,0.7523 16.72484,2.5041 20.75818,3.8928 4.03333,1.3888 9.43333,2.9389 11.99999,3.4446 2.56667,0.5058 6.75779,2.0396 9.31359,3.4085 2.55581,1.3689 5.68976,2.4889 6.96433,2.4889 1.27458,0 4.88347,1.1398 8.01975,2.5329 3.13628,1.3931 7.20233,3.1887 9.03567,3.9903 1.83333,0.8016 4.23333,1.9949 5.33333,2.6518 4.25655,2.5419 16.77851,8.1584 18.18921,8.1584 0.81635,0 2.19972,0.862 3.07418,1.9157 0.87444,1.0536 4.9979,2.331 9.16325,2.8386 4.16535,0.5076 9.79945,2.0455 12.52024,3.4176 2.72079,1.3721 5.90795,2.4947 7.08257,2.4947 1.99515,0 13.06452,4.6146 20.63722,8.6031 1.83333,0.9656 5.43333,2.205 8,2.7541 2.56666,0.5491 6.75778,2.1184 9.31358,3.4873 2.55582,1.3689 5.48499,2.4889 6.5093,2.4889 1.02429,0 3.73318,1.1235 6.01974,2.4968 2.28655,1.3732 6.77036,2.8904 9.964,3.3715 3.19365,0.481 7.46831,1.7339 9.49926,2.7842 2.03093,1.0502 7.74329,2.5566 12.6941,3.3475 4.95082,0.7909 10.64608,2.2884 12.65615,3.3279 2.01007,1.0394 7.34711,2.4845 11.86009,3.2113 19.01523,3.0623 30.64923,19.1426 25.38651,35.0888 -4.73372,14.3433 -17.98433,19.3776 -40.94141,15.5548 z M 115.40017,1021.4473 c -7.99323,-4.1682 -10.51545,-7.2028 -13.4962,-16.2381 l -2.502915,-7.58678 3.304625,-6.9854 c 3.4317,-7.25404 10.0019,-13.93672 13.70213,-13.93672 1.175,0 4.05014,-0.69203 6.38921,-1.53785 3.53839,-1.2795 5.30952,-1.1115 10.54272,1 8.02156,3.23656 13.12345,9.01469 15.98084,18.09907 2.24736,7.14488 2.24055,7.23248 -1.07452,13.83268 -4.20889,8.3797 -7.9412,11.8657 -15.51256,14.4887 -7.90535,2.7387 -10.19099,2.5889 -17.33333,-1.1356 z m 603.33332,-51.61361 c -10.8489,-1.61511 -17.65119,-3.19154 -24,-5.56195 -3.3352,-1.24524 -26.3138,-3.81119 -61.33334,-6.84888 -58.80165,-5.10063 -63.91021,-5.75108 -74.66665,-9.50708 -6.38739,-2.23039 -20.46849,-8.62469 -24.66667,-11.20127 -1.1,-0.67512 -7.00808,-4.10449 -13.12906,-7.62084 -6.12099,-3.51636 -13.32099,-7.7125 -16,-9.32477 -2.67902,-1.61228 -6.36984,-3.60404 -8.20183,-4.42614 -1.83199,-0.8221 -4.23199,-2.282 -5.33333,-3.24422 -1.10135,-0.96222 -3.50244,-2.16817 -5.33578,-2.67988 -1.83333,-0.51172 -5.43333,-1.9094 -8,-3.10597 -3.22396,-1.503 -7.55208,-2.06961 -14,-1.83281 -29.59758,1.08698 -30.32847,1.0318 -36.17197,-2.73096 -5.8779,-3.78494 -9.86877,-9.34868 -12.40942,-17.30026 -1.39152,-4.35506 -1.19791,-5.72933 1.69058,-12 5.25362,-11.40517 13.75471,-17.41514 27.87499,-19.70662 16.01529,-2.599 40.37948,-0.96686 48.45848,3.24624 2.13988,1.1159 4.6657,2.03262 5.61294,2.03714 2.60908,0.012 19.16199,8.36731 32.9444,16.62826 2.93334,1.75818 7.13334,4.13669 9.33334,5.28554 2.2,1.14887 5.8,3.25503 8,4.68036 5.52241,3.57786 19.49993,10.74739 20.95278,10.74739 0.65643,0 3.7106,1.13199 6.78703,2.51551 4.30856,1.93764 14.93564,3.32574 46.26017,6.04249 64.33336,5.57957 80.10834,7.4316 86.2883,10.13048 3.09189,1.35028 11.4919,3.14981 18.66667,3.99895 20.67712,2.44715 30.03373,8.93331 34.47872,23.90121 2.03627,6.85682 2.01369,7.06108 -1.52864,13.83568 -7.52511,14.39148 -17.69468,17.74594 -42.57171,14.0424 z M 220.56157,859.35898 c -6.96503,-3.68041 -11.04821,-9.18318 -13.07109,-17.61552 -1.72324,-7.18325 -1.66842,-7.56741 2.06979,-14.5067 4.50759,-8.36751 10.35045,-12.7164 18.78402,-13.9811 12.6501,-1.897 23.9188,8.07831 25.1913,22.29991 1.63345,18.25557 -17.42995,32.01713 -32.97402,23.80341 z m 625.08669,-56.0141 c -2.06356,-0.61942 -4.49332,-1.74154 -5.39949,-2.49358 -0.90616,-0.75205 -4.3178,-1.77805 -7.58141,-2.28 -3.26363,-0.50194 -8.03386,-1.95696 -10.60052,-3.23337 -2.56667,-1.27641 -7.95456,-2.76731 -11.97311,-3.31312 -4.01856,-0.5458 -9.51957,-1.7732 -12.22449,-2.72756 -2.70493,-0.95435 -18.47397,-3.31152 -35.04232,-5.23816 -20.67316,-2.40396 -31.89728,-4.3078 -35.77552,-6.06826 -3.10817,-1.41091 -7.1118,-2.57847 -8.89695,-2.59458 -1.78514,-0.0161 -5.68514,-1.19821 -8.66667,-2.6269 -2.98152,-1.42868 -6.92096,-3.25446 -8.75429,-4.05726 -4.26811,-1.86894 -6.5208,-3.24914 -18.53235,-11.35448 -20.56059,-13.87417 -13.06155,-12.25226 -86.80098,-18.77349 -59.54363,-5.2658 -66.55911,-6.13244 -71.71553,-8.85915 -6.7939,-3.5926 -11.55092,-10.05338 -13.66052,-18.55318 -1.34653,-5.42531 -1.20073,-6.95676 1.17322,-12.32347 3.28117,-7.41763 8.02634,-12.02203 16.0451,-15.56911 l 6.02156,-2.66361 69.01601,6.06527 c 70.81653,6.2235 76.67506,6.88722 77.87086,8.82209 0.38237,0.61868 3.08772,1.76912 6.01189,2.55651 2.92418,0.7874 10.24884,4.81376 16.27704,8.94748 21.16328,14.51226 24.25656,16.35729 28.8772,17.22413 2.56274,0.48077 7.07985,1.94412 10.03802,3.25188 3.675,1.62467 14.60586,3.2618 34.51252,5.169 16.02374,1.53519 31.2273,3.66585 33.78572,4.73483 2.55841,1.06897 8.64809,2.63576 13.53263,3.48176 4.88452,0.846 10.97208,2.65422 13.52788,4.01829 2.55581,1.36408 6.15581,2.49331 8,2.50941 1.8442,0.0161 5.81912,1.14919 8.83318,2.51795 3.01406,1.36877 7.9037,2.89813 10.86588,3.3986 10.78991,1.82293 20.50911,12.63245 22.52439,25.0512 0.80264,4.94604 -3.76476,15.75929 -8.39292,19.87018 -6.47243,5.74903 -22.48295,8.2364 -32.89603,5.1107 z M 338.06684,688.11811 c -7.95275,-4.18466 -11.20684,-8.004 -13.90963,-16.32586 -2.18187,-6.71798 -2.16324,-7.09488 0.67711,-13.69744 3.51892,-8.17994 8.24325,-12.40874 17.1783,-15.3765 6.59751,-2.19133 6.79759,-2.17533 13.70806,1.09589 8.50388,4.02552 12.69654,9.37367 14.6502,18.68775 1.38873,6.62084 1.25141,7.4289 -2.41582,14.21634 -2.99476,5.54283 -5.26696,7.87791 -9.88822,10.16184 -9.29306,4.59286 -13.16835,4.83272 -20,1.23798 z M 942.73349,586.60668 c -2.93333,-1.0871 -8.57739,-2.60857 -12.54235,-3.38101 -3.96496,-0.77245 -8.51156,-2.25792 -10.10356,-3.30103 -1.592,-1.04312 -6.42291,-2.54884 -10.73535,-3.34604 -4.31245,-0.7972 -9.04936,-2.29594 -10.52645,-3.33054 -1.47709,-1.03459 -3.92527,-1.88108 -5.44036,-1.88108 -1.51511,0 -5.13161,-1.21512 -8.03667,-2.70028 -2.90505,-1.48515 -9.48192,-3.35136 -14.61525,-4.14714 -5.13333,-0.79577 -10.83333,-2.20768 -12.66666,-3.13757 -1.83334,-0.92989 -6.50035,-2.361 -10.37114,-3.18023 -3.8708,-0.81924 -8.3708,-2.32485 -10,-3.34582 -1.62921,-1.02098 -5.3622,-2.26806 -8.29553,-2.77128 -2.93333,-0.50323 -6.58141,-1.71762 -8.10685,-2.69866 -3.25408,-2.09276 -28.60861,-6.5756 -48.55983,-8.58568 -15.75933,-1.58774 -83.65583,-7.50556 -102,-8.89024 -22.70283,-1.71369 -31.95127,-7.7615 -35.49292,-23.20977 -2.29296,-10.00161 4.779,-22.06465 15.79122,-26.93595 3.09739,-1.37013 9.39739,-2.8251 14,-3.23326 10.65246,-0.94467 128.3675,9.41113 138.4067,12.1761 4.01226,1.10504 11.90801,2.87102 17.54611,3.92438 5.6381,1.05337 11.9381,2.76957 14,3.81378 2.0619,1.04422 5.88256,2.28412 8.49034,2.75535 2.6078,0.47123 7.08466,2.05141 9.94859,3.51151 2.86393,1.46012 6.73028,2.66793 8.59189,2.68404 1.86161,0.0161 5.8478,1.14785 8.85821,2.51497 3.0104,1.36713 8.7104,2.88116 12.66667,3.36451 3.95625,0.48334 9.8932,2.00386 13.1932,3.37893 8.55368,3.5642 18.18167,6.68003 26.70676,8.64288 4.0554,0.93372 9.18088,2.63235 11.38998,3.77471 2.20908,1.14236 7.70468,2.74581 12.21244,3.56322 19.56613,3.54803 30.1617,9.35372 34.8876,19.11622 6.7185,13.87848 0.1424,28.42829 -15.49258,34.2781 -8.37821,3.1347 -16.28345,3.32708 -23.70421,0.57688 z M 456.51393,490.6705 c -7.45292,-3.88128 -10.84027,-8.36198 -13.10577,-17.33594 -1.59351,-6.31206 -1.49066,-7.09485 1.78022,-13.54964 3.96618,-7.82685 8.40864,-11.47058 16.7106,-13.70606 5.10312,-1.37414 6.66625,-1.21539 12.88479,1.30853 7.66517,3.11107 12.38025,8.59029 15.27922,17.75547 3.20682,10.13838 -4.96185,22.71916 -17.39116,26.78458 -8.17822,2.67496 -8.68322,2.63568 -16.1579,-1.25694 z"
         id="path179" />
    </g>
  </g>
</svg>
